<svg width="150" height="32" viewBox="0 0 150 32" fill="none" xmlns="http://www.w3.org/2000/svg">
<g clip-path="url(#clip0_2001_15)">
<path d="M46.1 28.4V3.60001H56C61 3.60001 64.5 6.50001 64.5 11.3C64.5812 12.9714 64.061 14.6165 63.0337 15.9373C62.0064 17.2582 60.5399 18.1673 58.9 18.5L64.3 28.4H59.6L54.6 18.9H50.3V28.4H46H46.1ZM50.3 15.2H55.7C58.7 15.2 60.2 13.9 60.2 11.3C60.2 8.70001 58.7 7.30001 55.7 7.30001H50.3V15.3V15.2ZM66.2 28.4L74 15.2L67.2 3.60001H71.9L76.7 12.5H76.8L81.6 3.60001H86.2L79.1 15.9L86.5 28.4H81.7L76.3 18.5L70.8 28.4H66.2ZM90 28.4V3.60001H98.1C103.6 3.60001 108.9 7.40001 108.9 15.9C108.9 20.5 107.5 23.9 105.4 25.8C103.311 27.5699 100.636 28.497 97.9 28.4H90ZM94.2 24.5H97.8C99.9 24.5 101.5 23.9 102.7 22.6C103.8 21.4 104.4 19.2 104.4 15.9C104.4 10.2 101.9 7.40001 98.1 7.40001H94.1V24.5H94.2Z" fill="white"/>
<path d="M27.7 19.4L26.6 20.4H26.5L26.6 20.5C29.3 20.5 31.9 21.5 34 23.3C31.9375 24.9895 29.3674 25.9375 26.7019 25.9919C24.0363 26.0463 21.4297 25.2039 19.3 23.6C22.5351 22.5503 25.3667 20.5265 27.4074 17.8056C29.4481 15.0847 30.5981 11.7996 30.7 8.4V7.6L29.9 7.8C27.5643 8.48204 25.3649 9.56482 23.4 11L23.3 12.5C25.1 11.1 27.1 10 29.5 9.2C29.3 11.6 28.1 19.2 18.5 22.6C20.8709 19.18 22.2233 15.1577 22.4 11V5.8C22.4 5.2 22.2 4.5 21.8 4.1C21.6775 3.96145 21.6069 3.78477 21.6 3.6V1.3C21.5 0.6 20.9 0 20 0H15.5C14.8 0 14.2 0.6 14.2 1.3V3.6L14 4C13.5 4.4 13.3 5 13.3 5.7V11C13.3 16.8 16.3 21.5 17.1 22.7C7.39999 19.3 6.09999 11.7 6.09999 9.2C8.33577 9.94763 10.4312 11.0629 12.3 12.5V11L11.5 10.4C9.63972 9.21711 7.61905 8.3078 5.49999 7.7L4.99999 7.6V8.4C4.99999 8.4 4.59999 19.2 16.5 23.7C14.3551 25.2933 11.7329 26.1114 9.06256 26.0206C6.39219 25.9297 3.83169 24.9353 1.79999 23.2C3.83885 21.5346 6.3688 20.5859 8.99999 20.5H9.19999H9.09999L8.09999 19.4H7.99999C5.16243 19.6695 2.49209 20.8641 0.399994 22.8L-0.100006 23.3L0.399994 23.7C2.58858 25.7444 5.41591 26.9704 8.40409 27.1708C11.3923 27.3713 14.358 26.5338 16.8 24.8C16 26.6 13.5 30.5 7.29999 30.8C7.69999 29.8 8.19999 29 8.79999 28.2L7.59999 28C6.84087 29.0127 6.29642 30.1696 5.99999 31.4L5.79999 32.1H6.49999C13.5 32.1 16.5 28.1 17.7 25.7C18.7849 27.7199 20.4257 29.3868 22.4283 30.5032C24.4309 31.6197 26.7114 32.1391 29 32H29.7L29.5 31.3C29.5 31.2 29.2 29.7 28.1 28.1H26.6V28.2C27.3 29 27.8 29.8 28.2 30.8C21.8 30.5 19.5 26.5 18.7 24.6C21.1478 26.3992 24.1484 27.2842 27.1808 27.1016C30.2132 26.9189 33.0859 25.68 35.3 23.6L35.7 23.3L35.3 22.8C33.2079 20.8641 30.5376 19.6695 27.7 19.4ZM21.2 5.8V11C21.2 15.8 18.9 20 17.9 21.6C16.9 19.9 14.6 15.8 14.6 11V5.8C14.6 5.4 14.7 5.1 14.9 4.8C15.2 4.5 15.4 4.1 15.4 3.7H20.4C20.4 4.1 20.5 4.5 20.8 4.9C21 5.1 21.2 5.4 21.2 5.8ZM20.3 2.5H15.4V1.3L15.6 1.2H20.1L20.3 1.3V2.5Z" fill="#B7955A"/>
<path d="M129.4 22.1C129.2 24.1 128.4 25.9 126.9 27.3C126.201 27.9793 125.37 28.5074 124.458 28.8515C123.546 29.1956 122.573 29.3482 121.6 29.3C120.44 29.3425 119.284 29.1319 118.214 28.6829C117.143 28.2339 116.183 27.5573 115.4 26.7C113.753 24.5983 112.934 21.9651 113.1 19.3C113.1 16.3 113.9 13.7 115.5 12C116.258 11.1323 117.197 10.441 118.251 9.97457C119.305 9.50815 120.448 9.27791 121.6 9.30001C123.6 9.30001 125.4 9.90001 126.8 11.3C128.3 12.6 129.1 14.3 129.3 16.3L127 16.7C126.6 13.7 124.8 11.4 121.7 11.4C117.9 11.4 115.4 14.4 115.4 19.4C115.4 24.4 117.8 27.2 121.6 27.2C123.2 27.2 124.5 26.7 125.4 25.6C126.298 24.4433 126.853 23.0571 127 21.6L129.4 22.1ZM135.5 26.7C133.791 24.6267 132.933 21.9817 133.1 19.3C133.1 16.3 134 13.8 135.6 12C136.347 11.1452 137.27 10.4616 138.306 9.99565C139.341 9.52972 140.465 9.29245 141.6 9.30001C144 9.30001 146 10.2 147.6 12C149.2 13.8 150 16.2 150 19.3C150 22.5 149.2 24.9 147.6 26.7C146.866 27.5708 145.946 28.2656 144.907 28.7329C143.869 29.2003 142.738 29.4283 141.6 29.4C140.466 29.4011 139.344 29.1609 138.31 28.6954C137.275 28.2299 136.352 27.5497 135.6 26.7H135.5ZM146 25.1C147.226 23.4242 147.827 21.3725 147.7 19.3C147.7 14.3 145.1 11.4 141.7 11.4C138 11.4 135.5 14.4 135.5 19.4C135.5 21.8 136 23.8 137.2 25.2C138.4 26.5 139.9 27.2 141.7 27.2C143.4 27.2 144.8 26.5 146 25.2V25.1Z" fill="white"/>
</g>
<defs>
<clipPath id="clip0_2001_15">
<rect width="150" height="32" fill="white"/>
</clipPath>
</defs>
</svg>
