<svg width="24" height="24" viewBox="0 0 24 24" fill="none" xmlns="http://www.w3.org/2000/svg">
<g clip-path="url(#clip0_2004_40)">
<path d="M12 9C11.2043 9 10.4413 9.31607 9.87867 9.87868C9.31607 10.4413 9 11.2044 9 12C9 12.7956 9.31607 13.5587 9.87867 14.1213C10.4413 14.6839 11.2043 15 12 15C12.7956 15 13.5587 14.6839 14.1213 14.1213C14.6839 13.5587 15 12.7956 15 12C15 11.2044 14.6839 10.4413 14.1213 9.87868C13.5587 9.31607 12.7956 9 12 9ZM17 12C17 13.3261 16.4732 14.5979 15.5355 15.5355C14.5978 16.4732 13.3261 17 12 17C10.6739 17 9.40214 16.4732 8.46446 15.5355C7.52678 14.5979 7 13.3261 7 12C7 10.6739 7.52678 9.40215 8.46446 8.46447C9.40214 7.52678 10.6739 7 12 7C13.3261 7 14.5978 7.52678 15.5355 8.46447C16.4732 9.40215 17 10.6739 17 12ZM18.5 6.7C18.5553 6.89347 18.5649 7.09713 18.528 7.29494C18.4912 7.49275 18.409 7.67932 18.2878 7.83995C18.1667 8.00059 18.0099 8.1309 17.8298 8.22063C17.6497 8.31037 17.4512 8.35707 17.25 8.35707C17.0488 8.35707 16.8503 8.31037 16.6702 8.22063C16.4901 8.1309 16.3333 8.00059 16.2122 7.83995C16.091 7.67932 16.0088 7.49275 15.9719 7.29494C15.9351 7.09713 15.9447 6.89347 16 6.7C16.0776 6.42835 16.2416 6.18937 16.4671 6.01924C16.6927 5.8491 16.9675 5.75707 17.25 5.75707C17.5325 5.75707 17.8073 5.8491 18.0329 6.01924C18.2584 6.18937 18.4224 6.42835 18.5 6.7ZM12 4C10.0621 4.05584 8.12721 4.18928 6.2 4.4L5 5L4.3 6C3.96971 9.89301 3.96971 13.807 4.3 17.7L5 19L6 19.7C9.893 20.0303 13.807 20.0303 17.7 19.7C18.1849 19.5786 18.6317 19.338 19 19L19.7 18C20.0303 14.107 20.0303 10.193 19.7 6.3C19.5786 5.81512 19.338 5.36825 19 5L18 4.3C16.0053 4.11319 14.0034 4.0131 12 4ZM12 2H16.1C17.1 2.1 17.9 2.3 18.5 2.5C19.2 2.8 19.8 3.1 20.3 3.7C20.8266 4.20524 21.2361 4.81962 21.5 5.5C21.7 6.1 21.9 6.8 21.9 7.9C22.0302 11.4717 21.8965 15.048 21.5 18.6C21.2 19.2 20.8 19.8 20.3 20.3C19.7948 20.8266 19.1804 21.2361 18.5 21.5C17.9 21.7 17.2 21.9 16.1 21.9C12.5283 22.0302 8.95195 21.8965 5.4 21.5C4.8 21.2 4.2 20.8 3.7 20.3C3.2 19.8 2.7 19.3 2.5 18.5C2.3 17.9 2.1 17.2 2.1 16.1C1.96977 12.5284 2.10347 8.95196 2.5 5.4C2.8 4.8 3.2 4.2 3.7 3.7C4.2 3.2 4.7 2.7 5.5 2.5C6.1 2.3 6.8 2.1 7.9 2.1L12 2Z" fill="#B19662"/>
</g>
<defs>
<clipPath id="clip0_2004_40">
<rect width="24" height="24" fill="white"/>
</clipPath>
</defs>
</svg>
