<svg width="24" height="24" viewBox="0 0 24 24" fill="none" xmlns="http://www.w3.org/2000/svg">
<g clip-path="url(#clip0_2004_44)">
<path d="M3.09999 2H21C21.6 2 22.1 2.5 22.1 3.1V21C22.1 21.6 21.6 22.1 21 22.1H2.99999C2.39999 22.1 1.89999 21.6 1.89999 21V3C1.99999 2.5 2.49999 2 3.09999 2ZM3.99999 4V20H20V4H3.99999ZM7.49999 9C7.10217 9 6.72064 8.84196 6.43933 8.56066C6.15803 8.27936 5.99999 7.89782 5.99999 7.5C5.99999 7.10218 6.15803 6.72064 6.43933 6.43934C6.72064 6.15804 7.10217 6 7.49999 6C7.89782 6 8.27935 6.15804 8.56065 6.43934C8.84196 6.72064 8.99999 7.10218 8.99999 7.5C8.99999 7.89782 8.84196 8.27936 8.56065 8.56066C8.27935 8.84196 7.89782 9 7.49999 9ZM6.49999 10H8.49999V17.5H6.49999V10ZM14 9.5C16 9.5 17.5 11.2 17.5 13.3V17.5H15.5V13.2C15.4054 12.8071 15.1814 12.4575 14.8639 12.2074C14.5465 11.9573 14.1541 11.8213 13.75 11.8213C13.3459 11.8213 12.9535 11.9573 12.6361 12.2074C12.3186 12.4575 12.0946 12.8071 12 13.2V17.5H9.99999V10H12V10.4C12.5292 9.85833 13.2436 9.53683 14 9.5Z" fill="#B19662"/>
</g>
<defs>
<clipPath id="clip0_2004_44">
<rect width="24" height="24" fill="white"/>
</clipPath>
</defs>
</svg>
