<?xml version="1.0" encoding="UTF-8"?>
<svg xmlns="http://www.w3.org/2000/svg" xmlns:xlink="http://www.w3.org/1999/xlink" width="57px" height="55px" viewBox="0 0 57 55" version="1.1">
  <title>cup</title>
  <g id="Page-1" stroke="none" stroke-width="1" fill="none" fill-rule="evenodd">
    <g id="Artboard" transform="translate(-3.000000, -4.000000)" stroke="#B19662" stroke-width="3">
      <g id="cup" transform="translate(5.000000, 6.000000)">
        <line x1="13.3333333" y1="50.6666667" x2="40" y2="50.6666667" id="Path" stroke-linecap="round" stroke-linejoin="round"></line>
        <path d="M10.6666667,0 L42.6666667,0 L42.6666667,24 C42.6666667,32.836556 35.5032227,40 26.6666667,40 C17.8301107,40 10.6666667,32.836556 10.6666667,24 L10.6666667,0 Z" id="Shape" stroke-linecap="square" stroke-linejoin="round"></path>
        <line x1="26.6666667" y1="40" x2="26.6666667" y2="50.6666667" id="Path" stroke-linecap="square"></line>
        <path d="M10.6666667,8 L10.6666667,24 L8,24 C3.581722,24 0,20.418278 0,16 C0,11.581722 3.581722,8 8,8 L10.6666667,8 Z M42.6666667,24 L42.6666667,8 L45.3333333,8 C49.7516112,8 53.3333333,11.581722 53.3333333,16 C53.3333333,20.418278 49.7516112,24 45.3333333,24 L42.6666667,24 Z" id="Shape" stroke-linecap="square"></path>
      </g>
    </g>
  </g>
</svg>
