<svg width="24" height="24" viewBox="0 0 24 24" fill="none" xmlns="http://www.w3.org/2000/svg">
<g clip-path="url(#clip0_4001_20)">
<path d="M20 0H4C2.93913 0 1.92172 0.421427 1.17157 1.17157C0.421427 1.92172 0 2.93913 0 4L0 20C0 21.0609 0.421427 22.0783 1.17157 22.8284C1.92172 23.5786 2.93913 24 4 24H20C21.0609 24 22.0783 23.5786 22.8284 22.8284C23.5786 22.0783 24 21.0609 24 20V4C24 2.93913 23.5786 1.92172 22.8284 1.17157C22.0783 0.421427 21.0609 0 20 0Z" fill="white"/>
<path d="M20 12C19.9988 10.5009 19.5765 9.03235 18.7811 7.76169C17.9857 6.49102 16.8493 5.46939 15.5015 4.81327C14.1536 4.15715 12.6485 3.89294 11.1578 4.05075C9.66706 4.20857 8.25065 4.78206 7.07005 5.70586C5.88945 6.62965 4.99216 7.86657 4.48047 9.27561C3.96878 10.6846 3.86329 12.2091 4.17601 13.6752C4.48874 15.1413 5.2071 16.49 6.2492 17.5676C7.2913 18.6452 8.61521 19.4084 10.07 19.77V14.44H8.42V12H10.07V10.95C10.07 8.23 11.3 6.96 13.97 6.96C14.48 6.96 15.36 7.06 15.72 7.16V9.37C15.52 9.36 15.2 9.34 14.79 9.34C13.48 9.34 12.97 9.84 12.97 11.14V12H15.58L15.13 14.44H12.97V19.94C14.9092 19.7031 16.6946 18.7649 17.9897 17.3022C19.2847 15.8396 19.9998 13.9536 20 12Z" fill="#040404"/>
</g>
<defs>
<clipPath id="clip0_4001_20">
<rect width="24" height="24" fill="white"/>
</clipPath>
</defs>
</svg>
