<svg width="150" height="32" viewBox="0 0 150 32" fill="none" xmlns="http://www.w3.org/2000/svg">
<g clip-path="url(#clip0_1746_7186)">
<path d="M46.1 28.3996V3.59961H56C61 3.59961 64.5 6.49961 64.5 11.2996C64.5812 12.971 64.061 14.6161 63.0337 15.9369C62.0064 17.2578 60.5399 18.1669 58.9 18.4996L64.3 28.3996H59.6L54.6 18.8996H50.3V28.3996H46H46.1ZM50.3 15.1996H55.7C58.7 15.1996 60.2 13.8996 60.2 11.2996C60.2 8.69961 58.7 7.29961 55.7 7.29961H50.3V15.2996V15.1996ZM66.2 28.3996L74 15.1996L67.2 3.59961H71.9L76.7 12.4996H76.8L81.6 3.59961H86.2L79.1 15.8996L86.5 28.3996H81.7L76.3 18.4996L70.8 28.3996H66.2ZM90 28.3996V3.59961H98.1C103.6 3.59961 108.9 7.39961 108.9 15.8996C108.9 20.4996 107.5 23.8996 105.4 25.7996C103.311 27.5695 100.636 28.4966 97.9 28.3996H90ZM94.2 24.4996H97.8C99.9 24.4996 101.5 23.8996 102.7 22.5996C103.8 21.3996 104.4 19.1996 104.4 15.8996C104.4 10.1996 101.9 7.39961 98.1 7.39961H94.1V24.4996H94.2Z" fill="#040404"/>
<path d="M27.7004 19.4L26.6004 20.4H26.5004L26.6004 20.5C29.3004 20.5 31.9004 21.5 34.0004 23.3C31.9379 24.9895 29.3678 25.9375 26.7023 25.9919C24.0367 26.0463 21.4301 25.2039 19.3004 23.6C22.5355 22.5503 25.3671 20.5265 27.4078 17.8056C29.4485 15.0847 30.5985 11.7996 30.7004 8.4V7.6L29.9004 7.8C27.5647 8.48204 25.3653 9.56482 23.4004 11L23.3004 12.5C25.1004 11.1 27.1004 10 29.5004 9.2C29.3004 11.6 28.1004 19.2 18.5004 22.6C20.8713 19.18 22.2237 15.1577 22.4004 11V5.8C22.4004 5.2 22.2004 4.5 21.8004 4.1C21.6779 3.96145 21.6073 3.78477 21.6004 3.6V1.3C21.5004 0.6 20.9004 0 20.0004 0H15.5004C14.8004 0 14.2004 0.6 14.2004 1.3V3.6L14.0004 4C13.5004 4.4 13.3004 5 13.3004 5.7V11C13.3004 16.8 16.3004 21.5 17.1004 22.7C7.40039 19.3 6.10039 11.7 6.10039 9.2C8.33616 9.94763 10.4316 11.0629 12.3004 12.5V11L11.5004 10.4C9.64012 9.21711 7.61945 8.3078 5.50039 7.7L5.00039 7.6V8.4C5.00039 8.4 4.60039 19.2 16.5004 23.7C14.3555 25.2933 11.7333 26.1114 9.06296 26.0206C6.39259 25.9297 3.83209 24.9353 1.80039 23.2C3.83925 21.5346 6.3692 20.5859 9.00039 20.5H9.20039H9.10039L8.10039 19.4H8.00039C5.16283 19.6695 2.49248 20.8641 0.400391 22.8L-0.0996094 23.3L0.400391 23.7C2.58897 25.7444 5.4163 26.9704 8.40448 27.1708C11.3927 27.3713 14.3584 26.5338 16.8004 24.8C16.0004 26.6 13.5004 30.5 7.30039 30.8C7.70039 29.8 8.20039 29 8.80039 28.2L7.60039 28C6.84127 29.0127 6.29682 30.1696 6.00039 31.4L5.80039 32.1H6.50039C13.5004 32.1 16.5004 28.1 17.7004 25.7C18.7852 27.7199 20.4261 29.3868 22.4287 30.5032C24.4313 31.6197 26.7118 32.1391 29.0004 32H29.7004L29.5004 31.3C29.5004 31.2 29.2004 29.7 28.1004 28.1H26.6004V28.2C27.3004 29 27.8004 29.8 28.2004 30.8C21.8004 30.5 19.5004 26.5 18.7004 24.6C21.1482 26.3992 24.1488 27.2842 27.1812 27.1016C30.2136 26.9189 33.0863 25.68 35.3004 23.6L35.7004 23.3L35.3004 22.8C33.2083 20.8641 30.538 19.6695 27.7004 19.4ZM21.2004 5.8V11C21.2004 15.8 18.9004 20 17.9004 21.6C16.9004 19.9 14.6004 15.8 14.6004 11V5.8C14.6004 5.4 14.7004 5.1 14.9004 4.8C15.2004 4.5 15.4004 4.1 15.4004 3.7H20.4004C20.4004 4.1 20.5004 4.5 20.8004 4.9C21.0004 5.1 21.2004 5.4 21.2004 5.8ZM20.3004 2.5H15.4004V1.3L15.6004 1.2H20.1004L20.3004 1.3V2.5Z" fill="#040404"/>
<path d="M129.401 22.1003C129.201 24.1003 128.401 25.9003 126.901 27.3003C126.202 27.9795 125.371 28.5077 124.459 28.8518C123.547 29.1958 122.574 29.3485 121.601 29.3003C120.441 29.3427 119.285 29.1322 118.215 28.6832C117.144 28.2342 116.184 27.5576 115.401 26.7003C113.754 24.5986 112.935 21.9654 113.101 19.3003C113.101 16.3003 113.901 13.7003 115.501 12.0003C116.259 11.1326 117.198 10.4413 118.252 9.97484C119.306 9.50842 120.449 9.27819 121.601 9.30028C123.601 9.30028 125.401 9.90028 126.801 11.3003C128.301 12.6003 129.101 14.3003 129.301 16.3003L127.001 16.7003C126.601 13.7003 124.801 11.4003 121.701 11.4003C117.901 11.4003 115.401 14.4003 115.401 19.4003C115.401 24.4003 117.801 27.2003 121.601 27.2003C123.201 27.2003 124.501 26.7003 125.401 25.6003C126.299 24.4436 126.854 23.0574 127.001 21.6003L129.401 22.1003ZM135.501 26.7003C133.792 24.6269 132.934 21.982 133.101 19.3003C133.101 16.3003 134.001 13.8003 135.601 12.0003C136.348 11.1455 137.271 10.4619 138.307 9.99593C139.342 9.52999 140.466 9.29272 141.601 9.30028C144.001 9.30028 146.001 10.2003 147.601 12.0003C149.201 13.8003 150.001 16.2003 150.001 19.3003C150.001 22.5003 149.201 24.9003 147.601 26.7003C146.867 27.5711 145.947 28.2659 144.908 28.7332C143.87 29.2006 142.74 29.4285 141.601 29.4003C140.467 29.4013 139.345 29.1612 138.311 28.6957C137.276 28.2302 136.353 27.55 135.601 26.7003H135.501ZM146.001 25.1003C147.227 23.4244 147.828 21.3727 147.701 19.3003C147.701 14.3003 145.101 11.4003 141.701 11.4003C138.001 11.4003 135.501 14.4003 135.501 19.4003C135.501 21.8003 136.001 23.8003 137.201 25.2003C138.401 26.5003 139.901 27.2003 141.701 27.2003C143.401 27.2003 144.801 26.5003 146.001 25.2003V25.1003Z" fill="#040404"/>
</g>
<defs>
<clipPath id="clip0_1746_7186">
<rect width="150" height="32" fill="white"/>
</clipPath>
</defs>
</svg>
