<svg width="24" height="24" viewBox="0 0 24 24" fill="none" xmlns="http://www.w3.org/2000/svg">
<g clip-path="url(#clip0_1747_7194)">
<path d="M20 0H4C1.79086 0 0 1.79086 0 4V20C0 22.2091 1.79086 24 4 24H20C22.2091 24 24 22.2091 24 20V4C24 1.79086 22.2091 0 20 0Z" fill="white"/>
<path d="M15.233 4H8.767C7.50329 4.00132 6.29171 4.50385 5.39804 5.39733C4.50437 6.29081 4.00159 7.50229 4 8.766V15.233C4.00132 16.4967 4.50385 17.7083 5.39733 18.602C6.29081 19.4956 7.50229 19.9984 8.766 20H15.233C16.4969 19.9987 17.7086 19.496 18.6023 18.6023C19.496 17.7086 19.9987 16.4969 20 15.233V8.767C19.9987 7.50312 19.496 6.29138 18.6023 5.39768C17.7086 4.50398 16.4969 4.00132 15.233 4ZM18.39 15.233C18.39 16.0703 18.0574 16.8733 17.4653 17.4653C16.8733 18.0574 16.0703 18.39 15.233 18.39H8.767C7.92989 18.3897 7.12715 18.057 6.53531 17.465C5.94347 16.873 5.611 16.0701 5.611 15.233V8.767C5.611 7.93006 5.94334 7.12737 6.53496 6.53537C7.12658 5.94338 7.92906 5.61053 8.766 5.61H15.233C16.0701 5.61 16.873 5.94247 17.465 6.53431C18.057 7.12615 18.3897 7.92888 18.39 8.766V15.233Z" fill="#040404"/>
<path d="M11.9993 7.86237C10.9023 7.86369 9.85052 8.30008 9.07478 9.07582C8.29904 9.85156 7.86265 10.9033 7.86133 12.0004C7.86265 13.0974 8.29904 14.1492 9.07478 14.9249C9.85052 15.7007 10.9023 16.137 11.9993 16.1384C13.0964 16.137 14.1481 15.7007 14.9239 14.9249C15.6996 14.1492 16.136 13.0974 16.1373 12.0004C16.136 10.9033 15.6996 9.85156 14.9239 9.07582C14.1481 8.30008 13.0964 7.86369 11.9993 7.86237ZM11.9993 14.5294C11.3286 14.5294 10.6853 14.2629 10.2111 13.7886C9.73678 13.3144 9.47033 12.6711 9.47033 12.0004C9.47033 11.3296 9.73678 10.6864 10.2111 10.2121C10.6853 9.73781 11.3286 9.47137 11.9993 9.47137C12.6701 9.47137 13.3133 9.73781 13.7876 10.2121C14.2619 10.6864 14.5283 11.3296 14.5283 12.0004C14.5283 12.6711 14.2619 13.3144 13.7876 13.7886C13.3133 14.2629 12.6701 14.5294 11.9993 14.5294ZM16.1453 8.88537C16.4084 8.88537 16.6607 8.78085 16.8468 8.59482C17.0328 8.40878 17.1373 8.15646 17.1373 7.89337C17.1373 7.63027 17.0328 7.37795 16.8468 7.19192C16.6607 7.00588 16.4084 6.90137 16.1453 6.90137C15.8822 6.90137 15.6299 7.00588 15.4439 7.19192C15.2578 7.37795 15.1533 7.63027 15.1533 7.89337C15.1533 8.15646 15.2578 8.40878 15.4439 8.59482C15.6299 8.78085 15.8822 8.88537 16.1453 8.88537Z" fill="#040404"/>
</g>
<defs>
<clipPath id="clip0_1747_7194">
<rect width="24" height="24" fill="white"/>
</clipPath>
</defs>
</svg>
