<svg width="24" height="24" viewBox="0 0 24 24" fill="none" xmlns="http://www.w3.org/2000/svg">
<g clip-path="url(#clip0_1746_7191)">
<path d="M20 0C21.0609 0 22.0783 0.421427 22.8284 1.17157C23.5786 1.92172 24 2.93913 24 4V20C24 21.0609 23.5786 22.0783 22.8284 22.8284C22.0783 23.5786 21.0609 24 20 24H4C2.93913 24 1.92172 23.5786 1.17157 22.8284C0.421427 22.0783 0 21.0609 0 20V4C0 2.93913 0.421427 1.92172 1.17157 1.17157C1.92172 0.421427 2.93913 0 4 0L20 0Z" fill="white"/>
<path d="M6.16 9.9H8.96V18H6.16V9.9ZM13.41 10.87C13.79 10.34 14.47 9.71 15.79 9.71H15.8C17.63 9.71 19 10.87 19 13.36V18H16.21V13.5C16.17 12.5 15.76 11.84 14.8 11.84C14.5899 11.8393 14.3819 11.8823 14.1892 11.966C13.9965 12.0498 13.8233 12.1726 13.6804 12.3268C13.5376 12.4809 13.4283 12.6629 13.3594 12.8614C13.2904 13.0599 13.2634 13.2705 13.28 13.48V18H10.5V10.39L10.49 9.9H13.28V11.05L13.41 10.87ZM6 7.4C6 6.6 6.62 6 7.58 6C8.53 6 9.12 6.6 9.13 7.4C9.13 8.18 8.53 8.8 7.56 8.8H7.38C6.54 8.72 6 8.13 6 7.4Z" fill="black"/>
</g>
<defs>
<clipPath id="clip0_1746_7191">
<rect width="24" height="24" fill="white"/>
</clipPath>
</defs>
</svg>
