<svg width="18" height="26" viewBox="0 0 18 26" fill="none" xmlns="http://www.w3.org/2000/svg">
<g clip-path="url(#clip0_2001_15)">
<path fill-rule="evenodd" clip-rule="evenodd" d="M9 25C14.3 19.4 17 14 17 9C17 6.87827 16.1571 4.84344 14.6569 3.34315C13.1566 1.84285 11.1217 1 9 1C6.87827 1 4.84344 1.84285 3.34315 3.34315C1.84285 4.84344 1 6.87827 1 9C1 14 3.7 19.4 9 25Z" stroke="#B19662" stroke-width="2" stroke-linecap="round" stroke-linejoin="round"/>
<path d="M9 11C10.1046 11 11 10.1046 11 9C11 7.89543 10.1046 7 9 7C7.89543 7 7 7.89543 7 9C7 10.1046 7.89543 11 9 11Z" stroke="#B19662" stroke-width="2" stroke-linecap="round" stroke-linejoin="round"/>
</g>
<defs>
<clipPath id="clip0_2001_15">
<rect width="18" height="26" fill="white"/>
</clipPath>
</defs>
</svg>
