<svg width="150" height="32" viewBox="0 0 150 32" fill="none" xmlns="http://www.w3.org/2000/svg">
<path d="M46.1047 28.3854V3.58203H55.9907C61.0931 3.58203 64.4593 6.45242 64.4593 11.3067C64.4593 15.0978 62.3332 17.6139 58.9316 18.4994L64.2821 28.3854H59.6403L54.6089 18.8538H50.2858V28.3854H46.1047ZM50.2858 15.2398H55.6718C58.719 15.2398 60.2426 13.9287 60.2426 11.3067C60.2426 8.68458 58.719 7.37354 55.6718 7.37354H50.2858V15.2398Z" fill="#120070"/>
<path d="M66.2312 28.3854L73.9557 15.169L67.1525 3.58204H71.9005L76.7194 12.5469H76.8257L81.5738 3.58203H86.18L79.0935 15.8777L86.4636 28.3854H81.7155L76.3296 18.4994H76.2588L70.8375 28.3854H66.2312Z" fill="#120070"/>
<path d="M90.0073 28.3854V3.58203H98.1216C103.614 3.58203 108.858 7.37354 108.858 15.9482C108.858 20.4836 107.547 23.9208 105.421 25.7633C103.295 27.5703 100.85 28.3854 97.909 28.3854H90.0073ZM94.1884 24.5231H97.838C99.9286 24.5231 101.523 23.8855 102.657 22.6453C103.826 21.4051 104.393 19.1729 104.393 15.9482C104.393 10.1728 101.913 7.44434 98.0508 7.44434H94.1884V24.5231Z" fill="#120070"/>
<path d="M27.6641 19.39L27.6377 19.3874L27.6191 19.406C27.2777 19.7551 26.9292 20.09 26.5833 20.4015L26.4791 20.4949L26.6191 20.4979C29.316 20.5458 31.915 21.5173 33.9821 23.2502C31.8456 25.0313 29.1524 26.0071 26.3708 26.0081C23.8005 26.0191 21.2984 25.1813 19.2529 23.6248C30.9759 19.1716 30.6848 8.48868 30.6805 8.38096L30.6497 7.62649L29.9257 7.8415C27.4085 8.58991 25.2623 9.62818 23.3647 11.016L23.3432 11.0316L23.342 11.0584C23.3214 11.5399 23.2949 12.0114 23.2632 12.4592L23.2542 12.5864L23.3534 12.5059C25.1123 11.0787 27.1197 10.0007 29.4877 9.21201C29.3345 11.5961 28.0804 19.1638 18.5832 22.6246C19.4023 21.425 22.3346 16.7282 22.3346 11.0099V5.79135C22.3352 5.15574 22.0991 4.54268 21.6723 4.07173C21.544 3.93029 21.4731 3.74612 21.4734 3.55519V1.32682C21.4724 0.594266 20.8787 0.00072402 20.1461 0H15.5958C14.8633 0.000724019 14.2695 0.594266 14.2686 1.32682V3.55519C14.2689 3.74606 14.1981 3.93021 14.07 4.07173C13.6429 4.54256 13.4066 5.15567 13.4072 5.79135V11.0099C13.4072 16.8043 16.379 21.4999 17.2077 22.696C7.54191 19.2693 6.26799 11.6208 6.11311 9.21114C7.81631 9.75982 9.44301 10.5224 10.9542 11.4806C11.4514 11.8044 11.9308 12.1548 12.3904 12.5301L12.4895 12.6106L12.4805 12.4834C12.4487 12.0369 12.422 11.5654 12.4008 11.0804L12.3997 11.0536L12.378 11.038C12.1045 10.8408 11.8568 10.6638 11.592 10.4925C9.75529 9.33301 7.7631 8.4404 5.6752 7.84149L4.95123 7.62692L4.92029 8.38096C4.91597 8.48911 4.62352 19.2356 16.45 23.6642C14.4068 25.192 11.9225 26.0146 9.37131 26.0081C6.67042 26.0081 3.9732 25.0265 1.76894 23.2428C3.84183 21.5237 6.43625 20.5579 9.12873 20.5031L9.269 20.5001L9.16463 20.4067C8.81497 20.0921 8.4625 19.7538 8.11696 19.4004L8.09836 19.3814L8.07186 19.384C5.22848 19.6591 2.556 20.8671 0.470896 22.8198L0 23.2584L0.479116 23.688C2.99474 25.9423 6.15269 27.1835 9.37131 27.1835C12.0578 27.1867 14.6789 26.3543 16.8713 24.8015C16.059 26.6358 13.6282 30.467 7.43289 30.7707C7.78362 29.8415 8.28402 28.976 8.91426 28.2084L8.98932 28.1162L8.87057 28.1179C8.4452 28.1219 8.02005 28.0966 7.59816 28.0422L7.56506 28.0379L7.54592 28.0652C6.37387 29.7333 6.06974 31.1999 6.05741 31.2617L5.91487 31.966H6.63365C13.5659 31.966 16.5896 27.9985 17.7933 25.5556C18.2332 26.4614 18.7936 27.3037 19.459 28.0595C21.0266 29.8415 23.9487 31.966 28.9674 31.966H29.6859L29.5434 31.2617C29.5311 31.2003 29.229 29.7433 28.0653 28.0807L28.0465 28.0535L28.0137 28.0574C27.5859 28.1073 27.1551 28.1259 26.7246 28.1132L26.6033 28.1093L26.6799 28.2036C27.3089 28.9746 27.8104 29.8412 28.1655 30.7707C21.8494 30.4597 19.4518 26.5281 18.6638 24.6493C20.8899 26.3077 23.5949 27.1971 26.3708 27.1835C29.6745 27.187 32.856 25.9348 35.271 23.6806L35.7328 23.2502L35.271 22.8198C33.5406 21.2062 31.404 20.0934 29.0898 19.6007C28.6189 19.5039 28.1429 19.4336 27.6641 19.39ZM21.159 5.79135V11.0099C21.159 15.8145 18.8974 19.9386 17.8711 21.5613C16.8448 19.9381 14.583 15.8141 14.583 11.0099V5.79135C14.5825 5.44736 14.7103 5.11555 14.9415 4.86081C15.2373 4.53127 15.412 4.11071 15.4366 3.66854H20.3053C20.33 4.11076 20.5047 4.53135 20.8008 4.86081C21.0316 5.11572 21.1593 5.44744 21.159 5.79135ZM20.2976 2.49313H15.4443V1.32682C15.4444 1.24319 15.5122 1.17545 15.5958 1.1754H20.1461C20.2297 1.17545 20.2975 1.24319 20.2976 1.32682V2.49313Z" fill="#B7955A"/>
<path d="M129.369 22.1194C129.193 24.08 128.316 25.9113 126.898 27.2769C125.501 28.6737 123.746 29.3543 121.633 29.3543C119.09 29.3543 117.013 28.4948 115.437 26.7396C113.896 24.9846 113.109 22.5132 113.109 19.3257C113.109 16.2095 113.932 13.7381 115.544 11.9831C117.156 10.1923 119.197 9.29688 121.633 9.29688C123.675 9.29688 125.394 9.94159 126.826 11.2669C128.295 12.592 129.119 14.2754 129.334 16.317L127.041 16.6751C126.576 13.7024 124.785 11.4459 121.669 11.4459C117.944 11.4459 115.437 14.3471 115.437 19.3257C115.437 24.3399 117.801 27.2053 121.633 27.2053C123.245 27.2053 124.498 26.6681 125.394 25.5935C126.292 24.4687 126.862 23.1177 127.041 21.6895L129.369 22.1194Z" fill="#120070"/>
<path d="M135.53 26.7039C133.918 24.9131 133.13 22.4416 133.13 19.3257C133.13 16.2095 133.954 13.774 135.602 11.9831C137.249 10.1923 139.255 9.29688 141.655 9.29688C143.983 9.29688 145.953 10.1923 147.564 11.9831C149.176 13.774 150 16.2095 150 19.3257C150 22.4775 149.212 24.9488 147.636 26.7039C146.096 28.4589 144.09 29.3543 141.655 29.3543C139.183 29.3543 137.142 28.4589 135.53 26.7039ZM145.953 25.1279C147.099 23.7311 147.672 21.797 147.672 19.3257C147.672 14.3471 145.129 11.4459 141.655 11.4459C138.037 11.4459 135.458 14.3113 135.458 19.3257C135.458 21.8328 136.031 23.7669 137.213 25.1638C138.395 26.5248 139.9 27.2053 141.655 27.2053C143.374 27.2053 144.807 26.5248 145.953 25.1279Z" fill="#120070"/>
</svg>
