<svg xmlns="http://www.w3.org/2000/svg" version="1.1" width="1280px" height="503px" style="shape-rendering:geometricPrecision; text-rendering:geometricPrecision; image-rendering:optimizeQuality; fill-rule:evenodd; clip-rule:evenodd" xmlns:xlink="http://www.w3.org/1999/xlink">
<g><path style="opacity:1" fill="#ad9154" d="M 310.5,41.5 C 334.836,41.3334 359.169,41.5 383.5,42C 387.924,44.0881 391.424,47.2547 394,51.5C 394.333,64.5 394.667,77.5 395,90.5C 398.603,96.0452 401.937,101.712 405,107.5C 405.334,118.342 405.834,129.175 406.5,140C 405.737,162.824 405.237,185.658 405,208.5C 399.743,254.738 383.91,296.904 357.5,335C 437.49,307.505 484.49,252.005 498.5,168.5C 498.564,166.611 498.064,164.944 497,163.5C 482.446,168.706 468.279,174.873 454.5,182C 442.259,189.9 430.259,198.066 418.5,206.5C 417.914,206.291 417.414,205.957 417,205.5C 415.966,198.633 416.633,191.967 419,185.5C 446.138,163.19 476.971,148.857 511.5,142.5C 514.841,141.843 516.841,143.176 517.5,146.5C 516.558,191.322 503.391,232.322 478,269.5C 448.765,307.082 411.932,334.249 367.5,351C 419.329,386.338 473.329,390.005 529.5,362C 537.337,357.249 545.004,352.249 552.5,347C 553.731,345.817 553.731,344.651 552.5,343.5C 525.416,323.621 495.083,312.121 461.5,309C 460.465,307.493 460.632,305.993 462,304.5C 466.133,301.369 469.966,297.869 473.5,294C 514.041,298.193 549.208,314.36 579,342.5C 579.667,344.167 579.667,345.833 579,347.5C 524.114,397.678 461.614,410.178 391.5,385C 382.228,380.697 373.228,375.863 364.5,370.5C 363.417,371.365 363.251,372.365 364,373.5C 370.208,385.713 378.374,396.546 388.5,406C 414.904,428.022 445.237,440.022 479.5,442C 479.833,441.667 480.167,441.333 480.5,441C 475.638,430.916 470.305,421.083 464.5,411.5C 464.608,410.558 464.941,409.725 465.5,409C 470.372,408.754 475.205,408.254 480,407.5C 481.225,407.862 482.391,408.362 483.5,409C 491.841,422.464 498.007,436.964 502,452.5C 502.769,455.099 502.602,457.599 501.5,460C 451.822,462.643 408.655,447.477 372,414.5C 367.711,408.542 363.044,402.876 358,397.5C 354.154,391.134 350.32,384.801 346.5,378.5C 324.994,418.915 291.994,444.415 247.5,455C 229.697,458.953 211.697,460.62 193.5,460C 191.968,459.3 190.968,458.134 190.5,456.5C 195.298,439.956 201.965,424.123 210.5,409C 211.872,408.598 213.205,408.098 214.5,407.5C 218.779,408.274 223.113,408.774 227.5,409C 228.059,409.725 228.392,410.558 228.5,411.5C 224.321,419.193 220.155,426.86 216,434.5C 214.921,437.063 214.421,439.729 214.5,442.5C 244.068,440.05 271.068,430.55 295.5,414C 311.104,402.602 322.771,388.102 330.5,370.5C 324.7,372.655 319.034,375.821 313.5,380C 239.549,412.231 173.049,401.064 114,346.5C 113.333,345.167 113.333,343.833 114,342.5C 143.803,314.513 178.97,298.346 219.5,294C 224.252,298.684 228.919,303.35 233.5,308C 204.768,311.605 177.768,320.605 152.5,335C 147.986,338.091 143.653,341.425 139.5,345C 194.699,387.233 253.032,391.9 314.5,359C 318.344,356.578 322.01,353.911 325.5,351C 281.685,334.321 245.185,307.487 216,270.5C 198.743,243.742 186.743,214.742 180,183.5C 178.535,170.192 177.868,156.859 178,143.5C 179.4,142.884 180.9,142.551 182.5,142.5C 217.18,149.58 248.68,164.247 277,186.5C 277.667,192.833 277.667,199.167 277,205.5C 276.586,205.957 276.086,206.291 275.5,206.5C 255.488,191.635 234.155,179.135 211.5,169C 206.397,166.741 201.063,165.241 195.5,164.5C 204.527,239.071 242.86,292.571 310.5,325C 319.022,329.166 327.688,332.499 336.5,335C 308.957,294.66 293.124,250.16 289,201.5C 288.333,170.5 288.333,139.5 289,108.5C 291.545,102.415 294.879,96.7485 299,91.5C 299.333,78.5 299.667,65.5 300,52.5C 302.357,47.6455 305.857,43.9788 310.5,41.5 Z M 317.5,58.5 C 337.725,58.2594 357.725,58.5928 377.5,59.5C 378.074,64.6483 377.407,69.4816 375.5,74C 356.17,74.5 336.836,74.6666 317.5,74.5C 317.5,69.1667 317.5,63.8333 317.5,58.5 Z M 317.5,91.5 C 337.169,91.3334 356.836,91.5 376.5,92C 377.286,94.9603 378.452,97.7937 380,100.5C 384.505,104.509 387.171,109.509 388,115.5C 388.717,146.844 388.384,178.177 387,209.5C 382.62,240.382 373.62,269.715 360,297.5C 355.565,304.718 350.898,311.718 346,318.5C 335.423,302.089 326.756,284.756 320,266.5C 315.957,250.479 311.957,234.479 308,218.5C 306.073,187.194 305.406,155.861 306,124.5C 304.695,115.082 307.361,107.082 314,100.5C 315.018,97.4121 316.185,94.4121 317.5,91.5 Z"/></g>
<g><path style="opacity:0.996" fill="#141641" d="M 867.5,271.5 C 892.528,271.091 917.528,271.591 942.5,273C 981.088,285.996 995.922,312.496 987,352.5C 977.223,376.488 959.389,389.988 933.5,393C 911.833,393.667 890.167,393.667 868.5,393C 867.503,352.572 867.17,312.072 867.5,271.5 Z M 899.5,295.5 C 909.172,295.334 918.839,295.5 928.5,296C 949.365,299.358 960.031,311.524 960.5,332.5C 959.696,352.135 949.696,363.968 930.5,368C 919.172,368.5 907.838,368.667 896.5,368.5C 896.5,344.167 896.5,319.833 896.5,295.5C 897.5,295.5 898.5,295.5 899.5,295.5 Z"/></g>
<g><path style="opacity:0.997" fill="#141641" d="M 618.5,271.5 C 641.865,271.086 665.198,271.586 688.5,273C 716.334,281.49 727.5,299.99 722,328.5C 717.512,339.833 710.012,348.499 699.5,354.5C 707.472,366.305 715.639,377.972 724,389.5C 724.749,390.635 724.583,391.635 723.5,392.5C 713.881,393.641 704.214,393.807 694.5,393C 686.142,382.301 678.142,371.301 670.5,360C 662.507,359.5 654.507,359.334 646.5,359.5C 646.667,370.505 646.5,381.505 646,392.5C 641.414,393.153 636.747,393.487 632,393.5C 627.081,393.468 622.414,392.801 618,391.5C 618.492,351.432 618.659,311.432 618.5,271.5 Z M 646.5,295.5 C 656.172,295.334 665.839,295.5 675.5,296C 691.826,299.98 696.993,309.814 691,325.5C 686.062,332.464 679.229,335.63 670.5,335C 662.507,335.5 654.507,335.666 646.5,335.5C 646.5,322.167 646.5,308.833 646.5,295.5 Z"/></g>
<g><path style="opacity:0.997" fill="#141640" d="M 734.5,271.5 C 744.839,271.334 755.172,271.5 765.5,272C 773.987,284.307 782.987,296.141 792.5,307.5C 793.442,307.392 794.275,307.059 795,306.5C 803.044,294.912 811.211,283.412 819.5,272C 829.744,271.181 839.91,271.348 850,272.5C 849.956,274.279 849.289,275.945 848,277.5C 834.411,294.425 821.578,311.925 809.5,330C 823.205,349.238 837.039,368.404 851,387.5C 852.505,389.298 852.672,391.132 851.5,393C 841.167,393.667 830.833,393.667 820.5,393C 810.944,379.374 801.277,365.874 791.5,352.5C 782.167,365.833 772.833,379.167 763.5,392.5C 753.303,393.824 743.137,393.824 733,392.5C 732.48,390.711 732.813,389.044 734,387.5C 747.366,368.613 760.866,349.779 774.5,331C 762.024,312.536 749.191,294.369 736,276.5C 734.991,274.975 734.491,273.308 734.5,271.5 Z"/></g>
<g><path style="opacity:0.985" fill="#141640" d="M 1040.5,314.5 C 1052.61,313.119 1063.27,316.286 1072.5,324C 1074.3,326.114 1075.63,328.448 1076.5,331C 1076.17,331.833 1075.83,332.667 1075.5,333.5C 1072.81,335.203 1070.14,336.87 1067.5,338.5C 1064.42,336.934 1061.76,334.767 1059.5,332C 1043.5,324.347 1031.16,328.181 1022.5,343.5C 1017.19,361.155 1022.86,373.322 1039.5,380C 1043.83,380.667 1048.17,380.667 1052.5,380C 1058.17,377.816 1063.17,374.649 1067.5,370.5C 1078.25,373.682 1079.25,378.849 1070.5,386C 1054.93,396.582 1038.93,397.248 1022.5,388C 1008.45,377.241 1002.95,363.074 1006,345.5C 1010.75,327.584 1022.25,317.251 1040.5,314.5 Z"/></g>
<g><path style="opacity:0.986" fill="#141640" d="M 1120.5,314.5 C 1136.48,313.109 1149.64,318.442 1160,330.5C 1167.81,344.752 1168.48,359.418 1162,374.5C 1156.57,383.841 1148.74,390.007 1138.5,393C 1118.08,397.376 1101.92,391.209 1090,374.5C 1083.39,358.936 1084.39,343.936 1093,329.5C 1100.24,320.721 1109.4,315.721 1120.5,314.5 Z M 1119.5,328.5 C 1138.85,326.649 1149.18,335.315 1150.5,354.5C 1149.45,373.524 1139.45,382.024 1120.5,380C 1107.9,376.053 1101.24,367.386 1100.5,354C 1101.72,341.619 1108.06,333.119 1119.5,328.5 Z"/></g>
<g><path style="opacity:0.715" fill="#0b0b2d" d="M 899.5,295.5 C 898.5,295.5 897.5,295.5 896.5,295.5C 896.5,319.833 896.5,344.167 896.5,368.5C 895.168,356.519 894.501,344.185 894.5,331.5C 894.833,319.167 895.167,306.833 895.5,294.5C 906.12,293.357 916.786,293.19 927.5,294C 917.991,294.17 908.658,294.67 899.5,295.5 Z"/></g>
</svg>
