<svg width="308" height="238" viewBox="0 0 308 238" fill="none" xmlns="http://www.w3.org/2000/svg">
<g clip-path="url(#clip0_1473_11980)">
<path fill-rule="evenodd" clip-rule="evenodd" d="M101 33.0004C152 4.00039 219 4.00039 304 35.0004L307 36.0004C291 126 257 186 206 215C156 244 88 244 3 213L1 212C17 122 50 62.0004 101 33.0004Z" stroke="#D1D5D5"/>
<path d="M126.398 41C137.72 41 146.898 31.8218 146.898 20.5C146.898 9.17816 137.72 0 126.398 0C115.077 0 105.898 9.17816 105.898 20.5C105.898 31.8218 115.077 41 126.398 41Z" fill="#5AB3F2"/>
</g>
<defs>
<clipPath id="clip0_1473_11980">
<rect width="308" height="238" fill="white"/>
</clipPath>
</defs>
</svg>
