<?xml version="1.0" encoding="UTF-8"?>
<svg xmlns="http://www.w3.org/2000/svg" xmlns:xlink="http://www.w3.org/1999/xlink" width="53px" height="53px" viewBox="0 0 53 53" version="1.1">
  <title>rocket</title>
  <g id="Page-1" stroke="none" stroke-width="1" fill="none" fill-rule="evenodd" stroke-linecap="round" stroke-linejoin="round">
    <g id="Artboard" transform="translate(-6.000000, -6.000000)" stroke="#B19662" stroke-width="3">
      <g id="rocket" transform="translate(7.000000, 7.000000)">
        <path d="M28.6623448,7.06670345 C27.1542069,8.06510345 25.7006897,9.22262069 24.3583448,10.5652414 C22.3804138,12.5428966 22.4336552,12.6502069 20.6650759,14.6744828 M28.6623448,7.06670345 C38.1117241,0.812 49.7166897,0.812 49.7166897,0.812 C49.7166897,0.812 49.7166897,12.4168276 43.4617931,21.8662069 M28.6623448,7.06670345 L43.4617931,21.8662069 M43.4617931,21.8662069 C42.4634483,23.3746207 41.305931,24.8278621 39.9633103,26.1702069 C37.9856552,28.1481379 37.8783448,28.0948966 35.854069,29.8634483 M10.3523586,27.7696552 C9.32491034,29.214069 8.75315862,30.0717241 8.75315862,30.0717241 L20.4569931,41.7754483 C20.4569931,41.7754483 21.3147586,41.2035862 22.7591724,40.1762759 M10.3523586,27.7696552 L0.950593103,18.3677241 L16.5556966,10.5652414 L20.6650759,14.6744828 M10.3523586,27.7696552 C12.3507586,24.96 16.0730483,19.9307586 20.6650759,14.6744828 M22.7591724,40.1762759 L32.1608276,49.577931 L39.9633103,33.9729655 L35.854069,29.8634483 M22.7591724,40.1762759 C25.5685517,38.177931 30.5977931,34.4554483 35.854069,29.8634483" id="Shape"></path>
        <path d="M5.90041514,44.5135312 C7.15412368,39.4399931 9.47925409,37.3554579 11.2690494,39.1447078 C13.0587373,40.9343156 10.9738044,43.2597319 5.90041514,44.5135312 Z" id="Path"></path>
      </g>
    </g>
  </g>
</svg>
