<svg width="24" height="24" viewBox="0 0 24 24" fill="none" xmlns="http://www.w3.org/2000/svg">
<path d="M20 0H4C2.93913 0 1.92172 0.421427 1.17157 1.17157C0.421427 1.92172 0 2.93913 0 4L0 20C0 21.0609 0.421427 22.0783 1.17157 22.8284C1.92172 23.5786 2.93913 24 4 24H20C21.0609 24 22.0783 23.5786 22.8284 22.8284C23.5786 22.0783 24 21.0609 24 20V4C24 2.93913 23.5786 1.92172 22.8284 1.17157C22.0783 0.421427 21.0609 0 20 0Z" fill="white"/>
<path d="M13.14 11.08L17.61 6H16.55L12.67 10.41L9.57 6H6L10.69 12.67L6 18H7.06L11.16 13.34L14.42 18H18M7.44 6.78H9.07L16.55 17.26H14.93" fill="#040404"/>
</svg>
