<svg width="150" height="32" viewBox="0 0 150 32" fill="none" xmlns="http://www.w3.org/2000/svg">
<g clip-path="url(#clip0_2001_26)">
<path d="M46.1048 28.3847V3.5813H55.9908C61.0932 3.5813 64.4594 6.45169 64.4594 11.3059C64.4594 15.0971 62.3332 17.6131 58.9317 18.4987L64.2822 28.3847H59.6404L54.6089 18.8531H50.2859V28.3847H46.1048ZM50.2859 15.239H55.6718C58.7191 15.239 60.2427 13.928 60.2427 11.3059C60.2427 8.68385 58.7191 7.37281 55.6718 7.37281H50.2859V15.239Z" fill="white"/>
<path d="M66.2311 28.3847L73.9556 15.1682L67.1524 3.5813H71.9005L76.7193 12.5462H76.8257L81.5737 3.5813H86.18L79.0934 15.8769L86.4635 28.3847H81.7155L76.3295 18.4987H76.2587L70.8374 28.3847H66.2311Z" fill="white"/>
<path d="M90.0073 28.3847V3.5813H98.1216C103.614 3.5813 108.858 7.37281 108.858 15.9474C108.858 20.4829 107.547 23.92 105.421 25.7626C103.295 27.5696 100.85 28.3847 97.909 28.3847H90.0073ZM94.1884 24.5224H97.838C99.9286 24.5224 101.523 23.8848 102.657 22.6446C103.826 21.4043 104.393 19.1722 104.393 15.9474C104.393 10.1721 101.913 7.44361 98.0508 7.44361H94.1884V24.5224Z" fill="white"/>
<path d="M27.6641 19.39L27.6377 19.3874L27.6191 19.406C27.2777 19.7551 26.9292 20.09 26.5833 20.4015L26.4791 20.4949L26.6191 20.4979C29.316 20.5458 31.915 21.5173 33.9821 23.2502C31.8456 25.0313 29.1524 26.0071 26.3708 26.0081C23.8005 26.0191 21.2984 25.1813 19.2529 23.6248C30.9759 19.1716 30.6848 8.48868 30.6805 8.38096L30.6497 7.62649L29.9257 7.8415C27.4085 8.58991 25.2623 9.62818 23.3647 11.016L23.3432 11.0316L23.342 11.0584C23.3214 11.5399 23.2949 12.0114 23.2632 12.4592L23.2542 12.5864L23.3534 12.5059C25.1123 11.0787 27.1197 10.0007 29.4877 9.21201C29.3345 11.5961 28.0804 19.1638 18.5832 22.6246C19.4023 21.425 22.3346 16.7282 22.3346 11.0099V5.79135C22.3352 5.15574 22.0991 4.54268 21.6723 4.07173C21.544 3.93029 21.4731 3.74612 21.4734 3.55519V1.32682C21.4724 0.594266 20.8787 0.00072402 20.1461 0H15.5958C14.8633 0.000724019 14.2695 0.594266 14.2686 1.32682V3.55519C14.2689 3.74606 14.1981 3.93021 14.07 4.07173C13.6429 4.54256 13.4066 5.15567 13.4072 5.79135V11.0099C13.4072 16.8043 16.379 21.4999 17.2077 22.696C7.54191 19.2693 6.26799 11.6208 6.11311 9.21114C7.81631 9.75982 9.44301 10.5224 10.9542 11.4806C11.4514 11.8044 11.9308 12.1548 12.3904 12.5301L12.4895 12.6106L12.4805 12.4834C12.4487 12.0369 12.422 11.5654 12.4008 11.0804L12.3997 11.0536L12.378 11.038C12.1045 10.8408 11.8568 10.6638 11.592 10.4925C9.75529 9.33301 7.7631 8.4404 5.6752 7.84149L4.95123 7.62692L4.92029 8.38096C4.91597 8.48911 4.62352 19.2356 16.45 23.6642C14.4068 25.192 11.9225 26.0146 9.37131 26.0081C6.67042 26.0081 3.9732 25.0265 1.76894 23.2428C3.84183 21.5237 6.43625 20.5579 9.12873 20.5031L9.269 20.5001L9.16463 20.4067C8.81497 20.0921 8.4625 19.7538 8.11696 19.4004L8.09836 19.3814L8.07186 19.384C5.22848 19.6591 2.556 20.8671 0.470896 22.8198L0 23.2584L0.479116 23.688C2.99474 25.9423 6.15269 27.1835 9.37131 27.1835C12.0578 27.1867 14.6789 26.3543 16.8713 24.8015C16.059 26.6358 13.6282 30.467 7.43289 30.7707C7.78362 29.8415 8.28402 28.976 8.91426 28.2084L8.98932 28.1162L8.87057 28.1179C8.4452 28.1219 8.02005 28.0966 7.59816 28.0422L7.56506 28.0379L7.54592 28.0652C6.37387 29.7333 6.06974 31.1999 6.05741 31.2617L5.91487 31.966H6.63365C13.5659 31.966 16.5896 27.9985 17.7933 25.5556C18.2332 26.4614 18.7936 27.3037 19.459 28.0595C21.0266 29.8415 23.9487 31.966 28.9674 31.966H29.6859L29.5434 31.2617C29.5311 31.2003 29.229 29.7433 28.0653 28.0807L28.0465 28.0535L28.0137 28.0574C27.5859 28.1073 27.1551 28.1259 26.7246 28.1132L26.6033 28.1093L26.6799 28.2036C27.3089 28.9746 27.8104 29.8412 28.1655 30.7707C21.8494 30.4597 19.4518 26.5281 18.6638 24.6493C20.8899 26.3077 23.5949 27.1971 26.3708 27.1835C29.6745 27.187 32.856 25.9348 35.271 23.6806L35.7328 23.2502L35.271 22.8198C33.5406 21.2062 31.404 20.0934 29.0898 19.6007C28.6189 19.5039 28.1429 19.4336 27.6641 19.39ZM21.159 5.79135V11.0099C21.159 15.8145 18.8974 19.9386 17.8711 21.5613C16.8448 19.9381 14.583 15.8141 14.583 11.0099V5.79135C14.5825 5.44736 14.7103 5.11555 14.9415 4.86081C15.2373 4.53127 15.412 4.11071 15.4366 3.66854H20.3053C20.33 4.11076 20.5047 4.53135 20.8008 4.86081C21.0316 5.11572 21.1593 5.44744 21.159 5.79135ZM20.2976 2.49313H15.4443V1.32682C15.4444 1.24319 15.5122 1.17545 15.5958 1.1754H20.1461C20.2297 1.17545 20.2975 1.24319 20.2976 1.32682V2.49313Z" fill="white"/>
<path d="M129.369 22.1187C129.193 24.0793 128.316 25.9106 126.898 27.2762C125.501 28.6731 123.746 29.3536 121.633 29.3536C119.09 29.3536 117.013 28.4941 115.437 26.7389C113.896 24.984 113.109 22.5125 113.109 19.325C113.109 16.2089 113.932 13.7375 115.544 11.9825C117.156 10.1916 119.197 9.2962 121.633 9.2962C123.675 9.2962 125.394 9.94092 126.826 11.2662C128.295 12.5913 129.119 14.2747 129.334 16.3163L127.041 16.6744C126.576 13.7018 124.785 11.4452 121.669 11.4452C117.944 11.4452 115.437 14.3465 115.437 19.325C115.437 24.3392 117.801 27.2047 121.633 27.2047C123.245 27.2047 124.498 26.6674 125.394 25.5928C126.292 24.468 126.862 23.1171 127.041 21.6888L129.369 22.1187Z" fill="white"/>
<path d="M135.53 26.7032C133.918 24.9124 133.13 22.441 133.13 19.325C133.13 16.2089 133.954 13.7733 135.602 11.9825C137.249 10.1916 139.255 9.2962 141.655 9.2962C143.983 9.2962 145.953 10.1916 147.564 11.9825C149.176 13.7733 150 16.2089 150 19.325C150 22.4768 149.212 24.9481 147.636 26.7032C146.096 28.4582 144.09 29.3536 141.655 29.3536C139.183 29.3536 137.142 28.4582 135.53 26.7032ZM145.953 25.1272C147.099 23.7304 147.672 21.7963 147.672 19.325C147.672 14.3465 145.129 11.4452 141.655 11.4452C138.037 11.4452 135.458 14.3106 135.458 19.325C135.458 21.8321 136.032 23.7663 137.213 25.1631C138.395 26.5241 139.9 27.2047 141.655 27.2047C143.374 27.2047 144.807 26.5241 145.953 25.1272Z" fill="white"/>
</g>
<defs>
<clipPath id="clip0_2001_26">
<rect width="150" height="32" fill="white"/>
</clipPath>
</defs>
</svg>
